<svg width="390" height="345" viewBox="0 0 390 345" fill="none" xmlns="http://www.w3.org/2000/svg">
<g filter="url(#filter0_d)">
<path d="M69.6203 328.538C67.7495 330.929 70.2077 334.267 73.0466 333.191L133.902 310.12C134.385 309.937 134.813 309.632 135.143 309.235L177.9 257.92C179.528 255.966 178.139 253 175.595 253H89.1234C86.8331 253 85.3875 255.463 86.504 257.462L101.657 284.603C102.246 285.658 102.145 286.963 101.401 287.914L69.6203 328.538Z" fill="#9C590B"/>
<rect x="4" y="3" width="376" height="264" rx="132" fill="#9C590B"/>
</g>
<path d="M224.195 64.2825C226.199 59.023 232.551 56.2386 238.114 58.1805V58.1805C243.066 59.9086 245.689 64.8175 244.204 69.5771L203.069 201.443C200.576 209.435 190.511 213.265 182.879 209.127L180.61 207.896C175.219 204.972 172.887 198.939 175.003 193.386L224.195 64.2825Z" fill="white"/>
<path d="M134.957 166.646C138.827 168.572 141.291 171.968 141.573 175.76L141.702 177.499C142.471 187.874 127.887 194.259 118.421 187.691L67.5787 152.413C63.4422 149.543 62.9687 144.352 66.5211 140.819V140.819C69.698 137.66 75.0997 136.848 79.2367 138.907L134.957 166.646Z" fill="white"/>
<path d="M114.873 89.5769C121.449 82.7811 133.426 84.3846 137.405 92.5936L138.772 95.4137C141.158 100.337 139.762 106.144 135.321 109.766L82.7351 152.658C78.5838 156.044 72.3569 156.091 68.2341 152.766V152.766C63.7356 149.139 63.3492 142.829 67.3711 138.672L114.873 89.5769Z" fill="white"/>
<path d="M257.322 168.462C253.669 170.704 251.471 174.47 251.43 178.488V178.488C251.318 189.369 265.675 195.381 274.408 188.002L317.861 151.284C321.529 148.185 321.694 142.949 318.23 139.59V139.59C315.136 136.589 310.115 136.056 306.405 138.333L257.322 168.462Z" fill="white"/>
<path d="M271.558 91.3756C264.854 84.6217 253.444 86.9479 250.113 95.7475L249.505 97.3553C247.515 102.613 249.187 108.583 253.64 112.122L304.088 152.226C308.068 155.39 313.767 155.123 317.356 151.604V151.604C321.27 147.767 321.278 141.468 317.375 137.535L271.558 91.3756Z" fill="white"/>
<defs>
<filter id="filter0_d" x="0" y="0" width="390" height="344.399" filterUnits="userSpaceOnUse" color-interpolation-filters="sRGB">
<feFlood flood-opacity="0" result="BackgroundImageFix"/>
<feColorMatrix in="SourceAlpha" type="matrix" values="0 0 0 0 0 0 0 0 0 0 0 0 0 0 0 0 0 0 127 0"/>
<feOffset dx="3" dy="4"/>
<feGaussianBlur stdDeviation="3.5"/>
<feColorMatrix type="matrix" values="0 0 0 0 0 0 0 0 0 0 0 0 0 0 0 0 0 0 0.19 0"/>
<feBlend mode="normal" in2="BackgroundImageFix" result="effect1_dropShadow"/>
<feBlend mode="normal" in="SourceGraphic" in2="effect1_dropShadow" result="shape"/>
</filter>
</defs>
</svg>
