<svg width="526" height="522" viewBox="0 0 526 522" fill="none" xmlns="http://www.w3.org/2000/svg">
<g filter="url(#filter0_d)">
<path d="M111.149 506.237C109.611 508.806 112.372 511.795 115.055 510.466L191.937 472.378C192.427 472.136 192.841 471.764 193.135 471.303L247.117 386.642C248.39 384.645 246.956 382.029 244.587 382.029H135.901C133.749 382.029 132.297 384.229 133.143 386.208L153.308 433.405C153.686 434.289 153.617 435.3 153.123 436.125L111.149 506.237Z" fill="#C16D6D"/>
<rect x="4" y="3" width="512" height="397.67" rx="198.835" fill="#C16D6D"/>
</g>
<path d="M304.286 106.089C306.87 99.3084 315.059 95.7185 322.232 98.2221L323.369 98.619C329.753 100.847 333.134 107.176 331.22 113.313L273.82 297.319C271.327 305.311 261.262 309.141 253.631 305.002L242.028 298.71C236.636 295.785 234.305 289.752 236.42 284.2L304.286 106.089Z" fill="white"/>
<path d="M185.804 245.869C189.674 247.796 192.138 251.191 192.42 254.984L193.47 269.145C194.239 279.52 179.655 285.905 170.19 279.337L92.7309 225.592C87.1493 221.719 86.5103 214.714 91.3039 209.947V209.947C95.5907 205.684 102.88 204.588 108.462 207.367L185.804 245.869Z" fill="white"/>
<path d="M161.453 135.734C168.028 128.938 180.005 130.541 183.984 138.75L190.197 151.567C192.583 156.49 191.187 162.297 186.746 165.92L112.401 226.56C107.245 230.765 99.512 230.823 94.3919 226.695L92.7399 225.363C87.1532 220.858 86.6734 213.021 91.6681 207.859L161.453 135.734Z" fill="white"/>
<path d="M346.729 248.497C343.077 250.739 340.879 254.464 340.837 258.483L340.708 271.153C340.596 282.034 354.954 287.865 363.687 280.486L430.454 224.067C435.403 219.885 435.626 212.821 430.952 208.288V208.288C426.777 204.239 420.002 203.519 414.996 206.592L346.729 248.497Z" fill="white"/>
<path d="M362.968 138.186C356.264 131.432 344.854 133.758 341.524 142.558L337.049 154.381C335.06 159.638 336.732 165.608 341.185 169.148L412.194 225.597C417.379 229.719 424.803 229.371 429.479 224.787L430.102 224.176C435.202 219.177 435.213 210.971 430.127 205.847L362.968 138.186Z" fill="white"/>
<defs>
<filter id="filter0_d" x="0" y="0" width="526" height="521.793" filterUnits="userSpaceOnUse" color-interpolation-filters="sRGB">
<feFlood flood-opacity="0" result="BackgroundImageFix"/>
<feColorMatrix in="SourceAlpha" type="matrix" values="0 0 0 0 0 0 0 0 0 0 0 0 0 0 0 0 0 0 127 0"/>
<feOffset dx="3" dy="4"/>
<feGaussianBlur stdDeviation="3.5"/>
<feColorMatrix type="matrix" values="0 0 0 0 0 0 0 0 0 0 0 0 0 0 0 0 0 0 0.19 0"/>
<feBlend mode="normal" in2="BackgroundImageFix" result="effect1_dropShadow"/>
<feBlend mode="normal" in="SourceGraphic" in2="effect1_dropShadow" result="shape"/>
</filter>
</defs>
</svg>
